Coordinates
version=1
nRows=13
nColumns=30
inDegrees=yes

Units are S.I. units (second, meters, Newtons, ...)
Angles are in degrees.

endheader
time	floatyaw	floatroll	floatpitch	floatx	floaty	floatz	pro_sup_l	deviation_l	flexion_l	cmc_flexion_l	cmc_abduction_l	mp_flexion_l	ip_flexion_l	2mcp_flexion_l	2mcp_abduction_l	2pm_flexion_l	2md_flexion_l	3mcp_flexion_l	3mcp_abduction_l	3pm_flexion_l	3md_flexion_l	4mcp_flexion_l	4mcp_abduction_l	4pm_flexion_l	4md_flexion_l	5mcp_flexion_l	5mcp_abduction_l	5pm_flexion_l	5md_flexion_l
-0.495000	-160.147433	-5.066637	-73.570646	0.081955	-0.181672	-0.016244	102.445099	4.453964	-0.286884	14.838491	6.450660	-25.358356	-41.134109	30.475568	7.236621	42.357785	28.934695	23.841553	4.317154	44.548101	29.235087	12.642825	-4.363459	52.620918	36.158742	0.329589	-8.563291	62.260545	43.858624
-0.485000	-160.147433	-5.066637	-73.570646	0.081902	-0.181554	-0.016327	102.482311	4.466720	-0.223277	14.832091	6.436453	-25.361256	-41.129464	30.474576	7.244713	42.345128	28.931926	23.816333	4.316253	44.559380	29.246528	12.645987	-4.367090	52.624478	36.165646	0.348822	-8.565457	62.243791	43.866883
-0.475000	-160.147433	-5.066637	-73.570646	0.081821	-0.181416	-0.016428	102.511250	4.485524	-0.162775	14.825453	6.419432	-25.358114	-41.119727	30.490824	7.255819	42.337329	28.927651	23.822028	4.313397	44.574646	29.258163	12.673062	-4.371951	52.628819	36.172657	0.388732	-8.562679	62.245556	43.870433
-0.465000	-160.147433	-5.066637	-73.570646	0.081708	-0.181261	-0.016549	102.524070	4.511653	-0.116311	14.815249	6.398319	-25.352435	-41.108343	30.533845	7.267885	42.336067	28.921635	23.871908	4.308451	44.596669	29.269107	12.734978	-4.377071	52.632447	36.177935	0.448410	-8.553580	62.276579	43.870007
-0.455000	-160.147433	-5.066637	-73.570646	0.081561	-0.181090	-0.016694	102.516840	4.545270	-0.090235	14.797689	6.371954	-25.350787	-41.100290	30.604105	7.278035	42.342327	28.914647	23.966346	4.302327	44.623810	29.277132	12.835311	-4.381698	52.633194	36.179770	0.521945	-8.537436	62.337095	43.865599
-0.445000	-160.147433	-5.066637	-73.570646	0.081380	-0.180895	-0.016870	102.490805	4.584920	-0.083046	14.770416	6.341978	-25.358850	-41.098727	30.690348	7.283783	42.354919	28.908001	24.090117	4.296558	44.648122	29.278776	12.966064	-4.385662	52.627886	36.177112	0.601321	-8.514598	62.413102	43.855149
-0.435000	-160.147433	-5.066637	-73.570646	0.081168	-0.180662	-0.017087	102.452296	4.627784	-0.085141	14.734458	6.313621	-25.378634	-41.104142	30.772532	7.284096	42.369438	28.902716	24.216787	4.292184	44.656673	29.270419	13.108163	-4.389577	52.612212	36.169890	0.679849	-8.486361	62.479612	43.834757
-0.425000	-160.147433	-5.066637	-73.570646	0.080927	-0.180379	-0.017355	102.411340	4.670846	-0.081549	14.694603	6.295025	-25.408497	-41.116876	30.829483	7.279562	42.379307	28.898985	24.318515	4.288670	44.636405	29.249963	13.237442	-4.394640	52.580942	36.158861	0.754034	-8.454325	62.509931	43.800407
-0.415000	-160.147433	-5.066637	-73.570646	0.080656	-0.180032	-0.017685	102.379312	4.712628	-0.056363	14.657522	6.296886	-25.444834	-41.139980	30.847196	7.271486	42.379765	28.896794	24.376110	4.283790	44.581093	29.218584	13.333790	-4.401894	52.528940	36.145097	0.823290	-8.420031	62.486744	43.750369
-0.405000	-160.147433	-5.066637	-73.570646	0.080344	-0.179615	-0.018087	102.366114	4.754798	0.003064	14.628628	6.332442	-25.482863	-41.178217	30.823203	7.260509	42.373455	28.897668	24.384474	4.274820	44.497243	29.181783	13.389649	-4.411296	52.452987	36.129330	0.888738	-8.385461	62.409901	43.687107
-0.395000	-160.147433	-5.066637	-73.570646	0.079972	-0.179126	-0.018574	102.377453	4.802885	0.103921	14.609761	6.415032	-25.515608	-41.232636	30.764940	7.245773	42.373875	28.906174	24.352205	4.260349	44.404975	29.148612	13.414766	-4.421309	52.353462	36.111193	0.952959	-8.353888	62.297292	43.617492
-0.385000	-160.147433	-5.066637	-73.570646	0.079507	-0.178561	-0.019165	102.412796	4.865858	0.248579	14.599290	6.550965	-25.533332	-41.295422	30.683335	7.225413	42.402991	28.929423	24.297397	4.241459	44.331624	29.128481	13.435418	-4.429459	52.234326	36.088353	1.021297	-8.329868	62.177888	43.550448
-0.375000	-160.147433	-5.066637	-73.570646	0.078906	-0.177908	-0.019889	102.464350	4.954976	0.437226	14.594328	6.730286	-25.526732	-41.351136	30.584920	7.198184	42.483087	28.974449	24.242318	4.221425	44.299694	29.126371	13.487505	-4.433529	52.100795	36.055799	1.103191	-8.317710	62.079477	43.492500
